<svg aria-hidden="true" style="position:absolute;width:0;height:0" xmlns="http://www.w3.org/2000/svg" overflow="hidden"><defs><symbol id="facebook" viewBox="0 0 32 32"><path d="M18.422 11.142h1.328V8.829a17.317 17.317 0 00-1.935-.102c-1.915 0-3.226 1.204-3.226 3.418v2.037h-2.113v2.585h2.113v6.505h2.59v-6.505h2.027l.322-2.585h-2.35v-1.781c.001-.747.202-1.259 1.243-1.259z"/></symbol><symbol id="instagram" viewBox="0 0 32 32"><path  d="M23.258 13.004c-.034-.773-.159-1.304-.338-1.765a3.557 3.557 0 00-.841-1.29 3.589 3.589 0 00-1.287-.838c-.463-.179-.992-.304-1.764-.338-.779-.037-1.026-.046-3.001-.046s-2.222.009-2.998.043c-.773.034-1.304.159-1.764.338a3.557 3.557 0 00-1.29.841 3.589 3.589 0 00-.838 1.287c-.179.463-.304.992-.338 1.764-.037.779-.045 1.026-.045 3.001s.008 2.222.043 2.998c.034.773.159 1.304.338 1.765.185.489.472.926.841 1.29.364.369.804.656 1.287.838.463.179.992.304 1.765.338.776.034 1.023.043 2.998.043s2.222-.008 2.998-.043c.773-.034 1.304-.159 1.764-.338a3.72 3.72 0 002.128-2.128c.179-.463.304-.992.338-1.765.034-.776.043-1.023.043-2.998s-.003-2.222-.037-2.998zm-1.309 5.938c-.031.71-.151 1.094-.25 1.35a2.409 2.409 0 01-1.381 1.381c-.256.099-.642.219-1.35.25-.767.034-.997.043-2.938.043s-2.174-.008-2.938-.043c-.71-.031-1.094-.15-1.35-.25a2.228 2.228 0 01-.835-.543 2.264 2.264 0 01-.543-.835c-.099-.256-.219-.642-.25-1.35-.034-.767-.043-.997-.043-2.938s.008-2.174.043-2.938c.031-.71.151-1.094.25-1.35.117-.315.301-.602.546-.835.236-.242.52-.426.835-.543.256-.099.642-.219 1.35-.25.767-.034.997-.043 2.938-.043 1.944 0 2.174.008 2.938.043.71.031 1.094.151 1.35.25.315.116.602.301.835.543.241.236.426.52.543.835.099.256.219.642.25 1.35.034.767.043.997.043 2.938s-.009 2.168-.043 2.935z"/><path d="M16.027 12.265a3.737 3.737 0 10.003 7.475 3.737 3.737 0 00-.003-7.475zm0 6.16a2.424 2.424 0 110-4.849 2.424 2.424 0 010 4.849zM20.784 12.117a.872.872 0 11-1.744 0 .872.872 0 011.744 0z"/></symbol><symbol id="linkedin" viewBox="0 0 32 32"><path d="M23.269 23.273v-.001h.004v-5.335c0-2.61-.562-4.62-3.613-4.62-1.467 0-2.451.805-2.853 1.568h-.042v-1.324h-2.893v9.711h3.012v-4.809c0-1.266.24-2.49 1.808-2.49 1.545 0 1.568 1.445 1.568 2.572v4.728h3.009zM8.967 13.562h3.016v9.711H8.967v-9.711zM10.474 8.727c-.964 0-1.747.782-1.747 1.747s.782 1.763 1.747 1.763c.964 0 1.747-.799 1.747-1.763s-.783-1.747-1.747-1.747z"/></symbol><symbol id="twitter" viewBox="0 0 32 32"><path d="M23.273 11.49a6.248 6.248 0 01-1.718.471 2.967 2.967 0 001.312-1.648 5.963 5.963 0 01-1.891.722 2.981 2.981 0 00-5.158 2.039c0 .236.02.464.069.68a8.439 8.439 0 01-6.146-3.119 2.985 2.985 0 00.917 3.985 2.943 2.943 0 01-1.347-.367v.033a2.996 2.996 0 002.389 2.93 2.992 2.992 0 01-.782.098 2.64 2.64 0 01-.565-.051 3.01 3.01 0 002.786 2.077 5.991 5.991 0 01-3.697 1.272 5.59 5.59 0 01-.714-.041 8.393 8.393 0 004.575 1.338c5.487 0 8.487-4.545 8.487-8.485 0-.132-.005-.259-.011-.385a5.95 5.95 0 001.495-1.548z"/></symbol><symbol id="envelope" viewBox="0 0 43 32"><path  d="M38.667.334H4c-2.206 0-4 1.675-4 3.734v22.404c0 2.059 1.794 3.734 4 3.734h34.667c2.206 0 4-1.675 4-3.734V4.068c0-2.059-1.794-3.734-4-3.734zm0 2.489c.181 0 .353.035.511.096L21.334 17.356 3.49 2.919c.158-.061.33-.096.511-.096h34.667zm0 24.893H4c-.736 0-1.333-.558-1.333-1.245V5.549L20.46 19.944c.251.203.563.304.874.304s.622-.101.874-.304L40.001 5.549v20.922c0 .687-.598 1.244-1.333 1.244z"/></symbol><symbol id="smartphone" viewBox="0 0 21 32"><path  d="M18.133 0H3.2C1.435 0 0 1.298 0 2.894v25.083c0 1.596 1.435 2.894 3.2 2.894h14.933c1.765 0 3.2-1.298 3.2-2.894V2.894c0-1.596-1.435-2.894-3.2-2.894zM3.2 1.929h14.933c.589 0 1.067.432 1.067.965v20.259H2.133V2.894c0-.532.478-.965 1.067-.965zm14.933 27.012H3.2c-.589 0-1.067-.432-1.067-.965v-2.894H19.2v2.894c0 .532-.478.965-1.067.965z"/><path fill="var(--color2, #757575)" d="M5.021 26.33c.417.377.417.988 0 1.364s-1.092.377-1.508 0c-.417-.377-.417-.988 0-1.364s1.092-.377 1.508 0z"/></symbol><symbol id="client-brand" viewBox="0 0 40 32"><path d="M3.055 26.742c.156.194.24.438.236.688a1.092 1.092 0 01-.365.869 1.575 1.575 0 01-1.061.317H0v-4.361h1.827c.361-.024.718.078 1.012.29a.998.998 0 01.354.816c.011.241-.065.477-.212.667a.997.997 0 01-.556.341c.247.045.471.177.63.373zm-2.187-.658h.781a.736.736 0 00.496-.145.507.507 0 00.167-.426.526.526 0 00-.165-.426.75.75 0 00-.511-.147H.868v1.144zm1.354 1.672a.54.54 0 00.185-.443.56.56 0 00-.188-.448.803.803 0 00-.53-.158H.87v1.199h.83a.822.822 0 00.524-.151zM6.79 28.617l-1.016-1.704h-.382v1.704h-.874v-4.361h1.655c.417-.029.83.103 1.152.371a1.394 1.394 0 01.123 1.804 1.342 1.342 0 01-.789.443l1.082 1.743H6.79zm-1.399-2.299h.715c.497 0 .745-.22.745-.66a.641.641 0 00-.183-.49.771.771 0 00-.562-.177h-.724l.008 1.327zM11.568 27.739H9.826l-.308.878h-.917l1.6-4.312h.991l1.593 4.312h-.917l-.301-.878zm-.233-.66l-.637-1.841-.637 1.841h1.273zM17.55 28.617h-.868l-1.946-2.965v2.965h-.866v-4.361h.866l1.946 2.983v-2.983h.868v4.361zM22.502 27.573a1.877 1.877 0 01-.785.769 2.546 2.546 0 01-1.22.275h-1.545v-4.361h1.545c.422-.011.841.081 1.22.268.332.168.606.433.785.761a2.541 2.541 0 010 2.288zm-.993-.104a1.601 1.601 0 000-2.082 1.506 1.506 0 00-1.086-.371h-.603v2.823h.603a1.5 1.5 0 001.086-.371zM12.111 0s11.201 4.246 10.963 10.39v10.392S11.881 16.534 12.115 10.39L12.111 0zM33.054 18.349a15.301 15.301 0 017.117-2.633v-3.253a14.62 14.62 0 00-7.117 5.886z"/><path d="M31.783 19.329a15.237 15.237 0 018.388-7.548V2.407S24.219 8.455 24.557 17.204v14.795s.711-.271 1.829-.778c0-.473 0-.95.051-1.429a15.387 15.387 0 015.347-10.464z"/><path  d="M30.266 24.825a15.35 15.35 0 01.558-3.029 14.323 14.323 0 00-3.377 8.937 46.367 46.367 0 003.068-1.623 15.355 15.355 0 01-.248-4.284zM30.9 24.878a14.705 14.705 0 00.197 3.879c4.358-2.618 9.255-6.664 9.067-11.553v-.426a14.276 14.276 0 00-8.292 3.89 14.648 14.648 0 00-.972 4.21z"/></symbol><symbol id="client-company-cube" viewBox="0 0 63 32"><path d="M31.815 14.712a2.198 2.198 0 01-.406-1.417V11.24c0-.63.134-1.109.403-1.436s.731-.491 1.386-.489c.615 0 1.052.139 1.31.418.282.356.419.791.387 1.229v.483h-1.101v-.489c.004-.16-.007-.32-.032-.479a.469.469 0 00-.157-.284.608.608 0 00-.399-.111.643.643 0 00-.419.117.55.55 0 00-.182.314 2.479 2.479 0 00-.043.508v2.494c-.017.241.031.481.141.7.055.074.131.133.22.17s.187.05.284.039a.573.573 0 00.39-.113.51.51 0 00.164-.303c.026-.165.037-.332.034-.5v-.506h1.101v.462c.031.457-.103.911-.381 1.292-.253.305-.684.458-1.317.458s-1.112-.163-1.383-.502zM36.399 14.733c-.278-.32-.417-.786-.417-1.403v-2.162c0-.61.139-1.072.417-1.386s.743-.47 1.395-.468c.647 0 1.11.156 1.388.468.278.314.419.776.419 1.386v2.162c0 .61-.141 1.079-.424 1.401s-.743.483-1.383.483-1.114-.163-1.395-.481zm1.907-.519c.1-.2.145-.42.132-.64v-2.647a1.233 1.233 0 00-.13-.627c-.056-.076-.134-.135-.225-.172s-.192-.05-.29-.037c-.099-.013-.2 0-.291.037s-.17.096-.226.172c-.1.196-.146.411-.132.627v2.659c-.014.22.032.44.132.64a.7.7 0 00.515.215c.098 0 .194-.019.283-.056s.168-.091.232-.159v-.012zM40.925 9.377h1.185l.891 3.988.912-3.988h1.153l.116 5.756h-.852l-.091-4.001-.88 4.001h-.684l-.912-4.015-.084 4.015h-.861l.107-5.756zM46.511 9.377h1.846c1.064 0 1.595.545 1.595 1.634 0 1.044-.56 1.565-1.68 1.564h-.629v2.558h-1.139l.007-5.756zm1.577 2.46a.84.84 0 00.627-.182.976.976 0 00.164-.65 1.885 1.885 0 00-.055-.523c-.016-.057-.045-.111-.084-.158s-.088-.086-.144-.116a1.115 1.115 0 00-.508-.092h-.442v1.72h.442zM51.595 9.377h1.224l1.256 5.756h-1.062l-.248-1.327h-1.092l-.255 1.327H50.34l1.256-5.756zm1.046 3.763l-.426-2.416-.426 2.416h.852zM55.089 9.377h.798l1.527 3.284V9.377h.946v5.756h-.759l-1.536-3.428v3.428h-.978l.002-5.756zM60.575 12.939l-1.269-3.553h1.069l.775 2.283.727-2.283h1.046l-1.253 3.553v2.195h-1.094v-2.195zM33.575 17.651v.301h-.93v2.339h-.39v-2.339h-.934v-.301h2.254zM36.49 20.291h-.301a.123.123 0 01-.084-.025.13.13 0 01-.05-.061l-.269-.627h-1.29l-.269.627a.189.189 0 01-.041.071.139.139 0 01-.084.025h-.301l1.14-2.64h.397l1.153 2.63zm-1.887-.98h1.076l-.456-1.074a1.822 1.822 0 01-.084-.249l-.043.14-.041.111-.451 1.072zM38.454 20.032c.071.003.143.003.214 0 .062-.006.123-.016.182-.031.056-.012.111-.029.164-.048.05-.019.1-.042.153-.065v-.594h-.456c-.011.001-.023-.001-.033-.005s-.02-.009-.028-.016c-.008-.006-.013-.013-.017-.022s-.006-.017-.005-.026v-.203h.884v1.012a1.673 1.673 0 01-.481.215 1.937 1.937 0 01-.285.054 3.375 3.375 0 01-.333.017 1.638 1.638 0 01-.574-.098 1.26 1.26 0 01-.855-1.242 1.438 1.438 0 01.103-.552c.066-.156.166-.299.294-.418.13-.119.285-.212.456-.274.195-.067.402-.101.611-.098.106 0 .212.008.317.023a1.451 1.451 0 01.499.172c.07.041.136.087.198.138l-.109.163a.107.107 0 01-.089.05.147.147 0 01-.071-.021 1.55 1.55 0 01-.112-.063.925.925 0 00-.153-.071 1.483 1.483 0 00-.21-.059 1.641 1.641 0 00-.289-.023c-.15-.002-.3.023-.44.073a.959.959 0 00-.335.209.93.93 0 00-.212.328 1.304 1.304 0 000 .88c.05.124.128.237.228.332a.95.95 0 00.333.209c.145.046.299.063.451.052zM42.087 19.99h1.244v.301h-1.625v-2.64h.39l-.009 2.339zM44.626 20.291h-.39v-2.64h.39v2.64zM46.076 17.663a.198.198 0 01.059.048l1.666 1.99a.737.737 0 010-.094V17.64h.34v2.651h-.196a.172.172 0 01-.084-.015.231.231 0 01-.062-.05l-1.664-1.988v2.052h-.326v-2.64h.203c.022 0 .044.004.064.012zM51.01 17.651v.291h-1.381v.872h1.119v.28h-1.119v.901h1.381v.291h-1.782v-2.634h1.782zM10.171 1.346l17.305 4.507v15.793l-17.305-4.505V1.346zM9.061 0v17.908l19.522 5.086V5.088L9.061 0z"/><path d="M19.525 31.307L0 26.217V8.311l19.525 5.088v17.908z"/><path  d="M9.385 1.143l17.079 4.45-7.263 6.664L2.12 7.805l7.266-6.662zM9.061 0L0 8.311l19.525 5.088 9.059-8.311L9.062 0zM20.623 30.299l7.961-7.303-7.961-2.076v9.379z"/></symbol><symbol id="client-company-tagline" viewBox="0 0 25 32"><path d="M10.447 1.806h.084c.156 0 .324.016.49.03.734.052 1.463.162 2.179.329V.403a12.97 12.97 0 00-2.25-.358 18.11 18.11 0 00-.909-.044h-.263a18.35 18.35 0 00-4.515.582 18.3 18.3 0 00-4.79 1.948v17.475a19.484 19.484 0 014.566-1.779 19.948 19.948 0 013.833-.588h.051c.216-.011.433-.017.655-.019v-1.79a21.155 21.155 0 00-4.982.662 23.81 23.81 0 00-1.731.513l-.623.211V3.591l.266-.128a17.409 17.409 0 016.471-1.651.523.523 0 01.056 0c.248-.013.497-.019.741-.019h.28c.129.003.258.006.388.014z"/><path d="M14.837 3.651a15.823 15.823 0 01-2.606-.211c-.277-.047-.55-.103-.814-.164v17.275a13.82 13.82 0 003.425.404 18.396 18.396 0 004.515-.581 18.362 18.362 0 004.792-1.948V1.263a19.58 19.58 0 01-4.564 1.781 19.388 19.388 0 01-4.747.609zm6.908.299l.623-.21v13.63l-.266.128a17.055 17.055 0 01-3.184 1.144c-1.331.344-2.7.522-4.074.527-.411 0-.819-.017-1.214-.052l-.427-.038V5.062l.497.033c.361.023.735.034 1.141.034a21.092 21.092 0 005.173-.663 26.802 26.802 0 001.731-.518zM1.684 25.977a.912.912 0 00-.693-.28 1.034 1.034 0 00-.4.075.91.91 0 00-.512.518 1.023 1.023 0 00-.072.387v2.335c-.006.165.026.328.092.479.055.12.135.226.233.313a.815.815 0 00.321.166c.114.032.231.048.349.049a.972.972 0 00.892-.61.951.951 0 00.075-.372v-.261h-.61v.208a.528.528 0 01-.036.208.359.359 0 01-.089.131.365.365 0 01-.128.067.425.425 0 01-.128.022.314.314 0 01-.286-.125.548.548 0 01-.081-.313v-2.177a.738.738 0 01.075-.349.312.312 0 01.299-.14.33.33 0 01.272.131c.068.09.104.2.101.313v.202h.604v-.238a1.093 1.093 0 00-.279-.737zM5.31 25.95a1.091 1.091 0 00-.694-.257 1.075 1.075 0 00-.364.066.965.965 0 00-.559.518 1.099 1.099 0 00-.089.452v2.239a1.08 1.08 0 00.089.459c.055.12.136.227.237.313a.94.94 0 00.322.197 1.028 1.028 0 00.728 0c.121-.044.233-.111.33-.197a.948.948 0 00.23-.313c.063-.144.093-.301.089-.459v-2.239a1.08 1.08 0 00-.089-.452 1.015 1.015 0 00-.23-.327zm-.285 3.019a.405.405 0 01-.121.324.445.445 0 01-.574 0 .397.397 0 01-.121-.324V26.73a.405.405 0 01.121-.324.445.445 0 01.574 0 .397.397 0 01.121.324v2.239zM10.072 29.969V25.73h-.587l-.771 2.244h-.011l-.777-2.244h-.581v4.239h.606V27.39h.011l.593 1.823h.302l.598-1.823h.011v2.579h.606zM13.513 26.027a.844.844 0 00-.342-.232 1.363 1.363 0 00-.439-.066h-.9v4.239h.604v-1.656h.311c.188.009.376-.031.545-.116a.882.882 0 00.332-.324 1.02 1.02 0 00.139-.369c.024-.16.035-.321.033-.482a2.421 2.421 0 00-.059-.606.898.898 0 00-.223-.39zm-.312 1.293a.547.547 0 01-.056.221.346.346 0 01-.156.149.619.619 0 01-.285.053h-.276v-1.441h.311a.578.578 0 01.272.053.352.352 0 01.142.156.624.624 0 01.053.236v.282c0 .099.006.2 0 .291H13.2zM16.374 25.73h-.495l-.934 4.239h.604l.177-.911h.823l.177.911h.604l-.957-4.239zm-.557 2.751l.297-1.537h.011l.296 1.537h-.604zM20.277 28.283h-.011l-.912-2.554h-.581v4.239h.604v-2.549h.012l.923 2.549h.568v-4.239h-.604v2.554zM23.968 25.73l-.486 1.685h-.012l-.486-1.685h-.64l.83 2.447v1.792h.604v-1.792l.83-2.447h-.64zM0 31.166h.291v.817h.198v-.817h.29v-.167H.001v.167zM2.447 30.999l-.381.984h.21l.081-.224h.392l.084.224h.215l-.391-.984h-.21zm-.031.594l.134-.365.134.365h-.268zM4.866 31.62h.227v.127a.382.382 0 01-.234.083.244.244 0 01-.209-.093.411.411 0 01-.073-.257c0-.219.095-.329.283-.329a.206.206 0 01.222.157l.195-.038c-.042-.192-.181-.289-.417-.289a.495.495 0 00-.344.127.494.494 0 00-.141.379.532.532 0 00.126.369.477.477 0 00.374.144.59.59 0 00.417-.157v-.388h-.427v.166zM7.337 30.999h-.199v.984h.69v-.167h-.49v-.817zM9.426 30.999h-.199v.984h.199v-.984zM11.469 31.656l-.403-.657h-.193v.984h.185v-.643l.395.643h.198v-.984h-.182v.657zM13.315 31.549h.49v-.167h-.49v-.216h.528v-.167h-.727v.984h.747v-.167h-.548v-.266zM17.792 31.387h-.388v-.388h-.198v.984h.198v-.43h.388v.43h.198v-.984h-.198v.388zM19.649 31.549h.492v-.167h-.492v-.216h.529v-.167h-.727v.984h.746v-.167h-.548v-.266zM22.168 31.549c.171-.027.258-.117.258-.274a.236.236 0 00-.096-.219.553.553 0 00-.288-.058h-.417v.984h.198v-.412h.039a.261.261 0 01.123.022.21.21 0 01.07.072l.215.313h.237l-.12-.192a.685.685 0 00-.218-.236zm-.199-.136h-.146v-.247h.156a.526.526 0 01.201.023c.014.013.026.029.033.046a.133.133 0 01-.005.111.128.128 0 01-.037.043.547.547 0 01-.201.023zM24.067 31.549h.49v-.167h-.49v-.216h.529v-.167h-.729v.984h.747v-.167h-.548v-.266z"/></symbol><symbol id="client-company" viewBox="0 0 31 32"><path d="M4.835 30.852a.093.093 0 01.061.025l.157.159a1.28 1.28 0 01-.441.302 1.622 1.622 0 01-.625.109 1.586 1.586 0 01-.588-.101 1.276 1.276 0 01-.443-.286 1.28 1.28 0 01-.286-.441 1.55 1.55 0 01-.1-.566 1.442 1.442 0 01.108-.568 1.311 1.311 0 01.774-.729c.193-.069.399-.103.606-.101a1.55 1.55 0 01.562.092c.155.062.298.148.421.255l-.131.17a.14.14 0 01-.033.031.09.09 0 01-.053.013.127.127 0 01-.057-.018l-.071-.045-.098-.058a1.172 1.172 0 00-.131-.056 1.3 1.3 0 00-.411-.063 1.19 1.19 0 00-.435.076.993.993 0 00-.341.213.978.978 0 00-.221.34 1.213 1.213 0 00-.08.449c-.002.155.025.309.08.456.048.125.122.24.218.338.09.092.201.164.325.21.128.049.265.074.404.072.08.001.16-.004.239-.014a.923.923 0 00.518-.233.118.118 0 01.074-.029zM9.362 30.052c.002.192-.033.383-.106.563-.064.163-.165.312-.295.437s-.289.222-.463.287a1.802 1.802 0 01-1.191 0 1.36 1.36 0 01-.461-.288 1.28 1.28 0 01-.298-.441 1.554 1.554 0 010-1.127c.067-.164.168-.315.298-.443.131-.12.288-.215.461-.277a1.765 1.765 0 011.191 0 1.293 1.293 0 01.758.724c.073.181.108.373.106.566zm-.412 0a1.248 1.248 0 00-.075-.452.928.928 0 00-.21-.338.915.915 0 00-.331-.213 1.3 1.3 0 00-.866 0 .92.92 0 00-.543.551c-.1.294-.1.61 0 .905a.92.92 0 00.212.338.926.926 0 00.331.212c.279.096.587.096.866 0a.913.913 0 00.331-.212.973.973 0 00.21-.338c.053-.146.078-.299.075-.452zM12.45 30.526l.041.101c.016-.036.029-.069.045-.101a.925.925 0 01.051-.099l1.001-1.68c.02-.029.037-.047.057-.052a.228.228 0 01.082-.009h.296v2.733h-.351v-2.01-.085a.737.737 0 010-.094l-1.007 1.704c-.013.026-.033.047-.059.062s-.056.023-.086.023h-.057a.16.16 0 01-.145-.085l-1.037-1.715v2.195h-.339v-2.728h.296a.25.25 0 01.082.009c.024.011.044.03.055.052l1.023 1.682c.02.031.037.064.051.098zM16.219 30.39v1.024h-.392v-2.729h.874c.165-.003.33.017.488.06a.945.945 0 01.345.17.705.705 0 01.196.268c.046.111.069.23.067.349a.813.813 0 01-.073.349.738.738 0 01-.212.273.984.984 0 01-.347.181 1.567 1.567 0 01-.472.063l-.474-.007zm0-.293h.474c.103.001.206-.013.304-.042a.641.641 0 00.22-.118.481.481 0 00.133-.181.554.554 0 00.047-.23c.005-.076-.009-.152-.039-.222s-.077-.134-.137-.186a.803.803 0 00-.527-.146h-.474v1.125zM21.486 31.418h-.31a.143.143 0 01-.086-.025.171.171 0 01-.051-.063l-.267-.66h-1.338l-.276.66a.143.143 0 01-.137.089h-.31l1.176-2.733h.408l1.192 2.733zm-1.94-1.015h1.105l-.466-1.113a1.812 1.812 0 01-.088-.257l-.045.143a1.464 1.464 0 01-.043.116l-.462 1.111zM23.18 28.697a.176.176 0 01.059.049l1.715 2.06v-.096-2.026h.351v2.733h-.196a.182.182 0 01-.08-.016.208.208 0 01-.063-.051l-1.713-2.059a.737.737 0 010 .094v2.031h-.351v-2.733h.208a.168.168 0 01.07.013zM28.193 30.33v1.085h-.392V30.33l-1.084-1.646h.351c.03-.002.06.007.084.024a.256.256 0 01.053.061l.678 1.062a1.113 1.113 0 01.12.243l.051-.118a.885.885 0 01.067-.125l.668-1.069a.28.28 0 01.051-.058.12.12 0 01.084-.027h.355l-1.086 1.654zM12.256 24.097c.171.02.343.036.517.051 2.644-1.092 4.881-2.879 6.431-5.138s2.344-4.889 2.284-7.563l-2.914-2.69c.593 2.846.315 5.788-.8 8.498s-3.026 5.078-5.518 6.842z"/><path d="M11.216 23.972l.078.014c2.662-1.758 4.692-4.212 5.827-7.046s1.322-5.917.538-8.85l-4.151-3.831c1.679 3.149 2.355 6.674 1.949 10.164s-1.877 6.802-4.242 9.55zM25.292 14.605c-.705 2.937-2.418 5.587-4.884 7.554a15.425 15.425 0 01-2.32 1.538c2.008-.545 3.853-1.508 5.394-2.815s2.736-2.924 3.493-4.724l-1.683-1.552z"/><path d="M24.632 14.173l-2.397-2.212c-.046 2.522-.823 4.987-2.25 7.139s-3.452 3.911-5.865 5.095h.012c.538 0 1.075-.03 1.609-.089 2.255-.85 4.247-2.201 5.799-3.934s2.614-3.794 3.093-5.998zM11.562 2.643L8.703 0C6.147.912 3.949 2.515 2.396 4.599S.008 9.151 0 11.681c.01 2.795 1.029 5.507 2.896 7.707s4.476 3.762 7.414 4.44c2.622-2.949 4.158-6.593 4.383-10.403s-.871-7.586-3.131-10.781zM31.238 13.766c-.01-3.316-1.442-6.494-3.982-8.838s-5.983-3.666-9.575-3.676a14.393 14.393 0 00-4.854.834l17.506 16.159c.599-1.428.906-2.947.905-4.479z"/></symbol><symbol id="client-foster-peters" viewBox="0 0 64 32"><path d="M9.964 9.702h-.002c-1.818 0-3.291 1.351-3.291 3.019v.002c0 1.667 1.474 3.019 3.291 3.019h.002c1.818 0 3.291-1.351 3.291-3.019v-.002c0-1.667-1.473-3.019-3.291-3.019zM34.256 8.737c-.005-2.315-1.01-4.535-2.795-6.172S27.257.005 24.732 0C22.207.004 19.786.926 18 2.564s-2.791 3.858-2.797 6.174v12.769s19.05-1.946 19.052-12.767v-.002zM0 25.697c.005 1.611.704 3.155 1.946 4.294s2.925 1.782 4.682 1.786c1.756-.005 3.439-.647 4.681-1.786s1.942-2.682 1.947-4.293v-8.885S0 18.168 0 25.696zm6.628 1.592c-.343 0-.679-.093-.964-.268s-.508-.424-.639-.714c-.131-.291-.166-.611-.099-.92s.232-.592.475-.815c.243-.223.552-.374.889-.436s.686-.03 1.003.091c.317.12.588.324.779.586s.293.57.293.884c.001.209-.043.417-.13.611s-.215.37-.376.518-.353.266-.564.347a1.88 1.88 0 01-.666.122v-.006zM20.09 26.404h-1.317v1.36h-.686v-3.329h2.168v.556h-1.482v.86h1.317v.553zm3.297-.228c0 .328-.058.615-.174.862s-.282.437-.498.572a1.372 1.372 0 01-.741.201c-.276 0-.522-.066-.738-.199s-.384-.322-.503-.567a1.964 1.964 0 01-.181-.851v-.165c0-.328.059-.616.176-.864.119-.25.286-.441.501-.574.216-.134.463-.201.741-.201s.524.067.739.201c.216.133.383.324.501.574.119.248.178.536.178.862v.149zm-.695-.151c0-.349-.063-.614-.188-.796s-.303-.272-.535-.272a.61.61 0 00-.533.27c-.125.178-.188.441-.19.787v.162c0 .34.063.604.187.791s.305.281.54.281c.23 0 .407-.09.53-.27.123-.181.186-.445.188-.791v-.162zm2.92.866a.348.348 0 00-.137-.297c-.091-.07-.256-.143-.494-.219a3.56 3.56 0 01-.565-.229c-.378-.204-.567-.479-.567-.825a.8.8 0 01.151-.48c.102-.142.248-.252.437-.332.191-.079.404-.119.64-.119.238 0 .45.043.636.13.186.085.33.207.432.364a.945.945 0 01.155.535h-.686a.444.444 0 00-.144-.354c-.096-.085-.231-.128-.405-.128-.168 0-.298.036-.391.107a.332.332 0 00-.139.279c0 .108.054.199.162.272.11.073.271.142.483.206.39.117.674.263.853.437s.268.39.268.649a.805.805 0 01-.327.679c-.218.163-.511.245-.88.245-.256 0-.489-.046-.7-.139a1.134 1.134 0 01-.483-.386.99.99 0 01-.165-.567h.688c0 .367.219.551.659.551.163 0 .29-.033.382-.098a.327.327 0 00.137-.279zm3.661-1.9h-1.02v2.774h-.686v-2.774h-1.006v-.556h2.712v.556zm2.396 1.331h-1.317v.892h1.546v.551h-2.232v-3.329h2.227v.556h-1.541v.793h1.317v.537zm1.864.224h-.547v1.219H32.3v-3.329h1.237c.393 0 .697.088.91.263s.32.423.32.743c0 .227-.049.417-.149.569a1.002 1.002 0 01-.446.361l.72 1.36v.032h-.736l-.624-1.219zm-.547-.556h.553c.172 0 .306-.043.4-.13a.472.472 0 00.142-.364.5.5 0 00-.135-.37c-.088-.09-.225-.135-.409-.135h-.551v.999zm4.158.602v1.173h-.686v-3.329h1.299c.25 0 .47.046.659.137.191.091.337.222.439.391.102.168.153.359.153.574 0 .326-.112.584-.336.773-.223.188-.531.281-.926.281h-.601zm0-.556h.613c.181 0 .319-.043.414-.128.096-.085.144-.207.144-.366 0-.163-.048-.295-.144-.396s-.229-.152-.398-.155h-.629v1.045zm4.339.286h-1.317v.892h1.546v.551H39.48v-3.329h2.227v.556h-1.541v.793h1.317v.537zm3.183-1.331h-1.02v2.774h-.686v-2.774h-1.006v-.556h2.712v.556zm2.397 1.331h-1.317v.892h1.546v.551H45.06v-3.329h2.227v.556h-1.541v.793h1.317v.537zm1.863.224h-.547v1.219h-.686v-3.329h1.237c.393 0 .697.088.91.263s.32.423.32.743c0 .227-.05.417-.149.569a1.002 1.002 0 01-.446.361l.72 1.36v.032h-.736l-.624-1.219zm-.546-.556h.553c.172 0 .306-.043.4-.13a.476.476 0 00.142-.364.5.5 0 00-.135-.37c-.088-.09-.225-.135-.409-.135h-.551v.999zm4.031.901a.348.348 0 00-.137-.297c-.091-.07-.256-.143-.494-.219a3.56 3.56 0 01-.565-.229c-.378-.204-.567-.479-.567-.825a.8.8 0 01.151-.48c.102-.142.248-.252.437-.332.191-.079.404-.119.64-.119.238 0 .45.043.636.13.186.085.33.207.432.364a.945.945 0 01.155.535h-.686a.444.444 0 00-.144-.354c-.096-.085-.231-.128-.405-.128-.168 0-.298.036-.391.107a.332.332 0 00-.139.279c0 .108.054.199.162.272.11.073.271.142.483.206.39.117.675.263.853.437s.267.39.267.649a.805.805 0 01-.327.679c-.218.163-.511.245-.88.245-.256 0-.489-.046-.7-.139a1.134 1.134 0 01-.483-.386.99.99 0 01-.165-.567h.688c0 .367.22.551.659.551.163 0 .29-.033.382-.098a.327.327 0 00.137-.279z"/></symbol><symbol id="client-yaco" viewBox="0 0 30 32"><path d="M4 0l4.872 4.468h13.59v12.465l4.872 4.468V0H4.001z"/><path d="M0 4.28v20.79h22.667v-8.264L9.016 4.285.001 4.28zm18.349 17.749H3.587V8.047H4.63v13.035h13.719v.947zM6.527 28.991l.545-1.123h.456l-.794 1.497v.872h-.413v-.872l-.796-1.497h.457l.545 1.123zm2.341.695H7.95l-.192.552H7.33l.895-2.37h.369l.897 2.37h-.43l-.194-.552zm-.803-.332h.687l-.343-.983-.343.983zm2.426.244c0-.11.03-.21.09-.301.06-.092.177-.201.353-.327a1.538 1.538 0 01-.194-.296.58.58 0 01-.054-.236c0-.186.056-.332.169-.439a.629.629 0 01.456-.163c.173 0 .314.051.423.153a.487.487 0 01.166.376.52.52 0 01-.075.273.894.894 0 01-.246.247l-.161.117.457.54a.947.947 0 00.099-.435h.343c0 .292-.068.531-.205.718l.348.412h-.459l-.133-.158c-.169.127-.371.19-.605.19s-.422-.062-.563-.186a.622.622 0 01-.21-.487zm.784.356a.603.603 0 00.374-.133l-.518-.61-.05.036c-.13.099-.195.212-.195.339 0 .11.035.199.106.267s.165.103.283.103zm-.218-1.526c0 .091.056.206.168.343l.181-.124.05-.041a.294.294 0 00.101-.23.207.207 0 00-.07-.158.25.25 0 00-.177-.067c-.077 0-.138.026-.184.078s-.068.118-.068.197zm4.305 1.038c-.024.253-.117.45-.28.592-.163.141-.379.212-.649.212a.943.943 0 01-.5-.133c-.143-.09-.254-.218-.332-.383s-.119-.356-.122-.575v-.221c0-.224.04-.42.119-.591s.193-.302.34-.394a.957.957 0 01.514-.138c.262 0 .472.071.632.213s.252.343.278.602h-.41c-.02-.17-.069-.293-.15-.368-.079-.076-.196-.114-.35-.114a.482.482 0 00-.413.197c-.095.13-.144.322-.146.575v.21c0 .256.046.451.137.586s.227.202.404.202c.162 0 .283-.036.365-.109s.133-.194.155-.363h.41zm2.261-.351c0 .232-.04.436-.12.612a.914.914 0 01-.345.404.95.95 0 01-.514.14.957.957 0 01-.514-.14.927.927 0 01-.348-.402 1.424 1.424 0 01-.124-.601v-.133c0-.231.041-.435.122-.612a.918.918 0 01.347-.405c.15-.094.321-.142.514-.142s.364.047.513.14c.15.092.265.226.347.4.081.174.123.376.124.607v.132zm-.412-.124c0-.263-.05-.464-.15-.604a.485.485 0 00-.422-.21.487.487 0 00-.418.21c-.1.139-.151.336-.153.591v.137c0 .26.05.462.151.604a.492.492 0 00.423.213.483.483 0 00.42-.208c.099-.139.148-.342.148-.609v-.124z"/></symbol><symbol id="vector-2" viewBox="0 0 32 32"><path d="M31.297 15.301C31.295 6.849 24.442-.002 15.989 0S.686 6.855.688 15.308a15.304 15.304 0 0010.649 14.576.662.662 0 00.529-.065.637.637 0 00.283-.356l3.865-12.25a1.912 1.912 0 10-.84-3.635l-5.106-5.107a.637.637 0 00-.902.902l5.103 5.109a1.876 1.876 0 00.536 2.309l-3.683 11.673C3.844 25.783.118 17.71 2.799 10.432S13.553-.572 20.831 2.109s11.004 10.754 8.323 18.032a14.042 14.042 0 01-7.462 7.973l-.398-1.874a.638.638 0 00-1.048-.344l-3.837 3.426a.637.637 0 00.231 1.084l4.899 1.563a.638.638 0 00.819-.74l-.391-1.839a15.255 15.255 0 009.329-14.089zm-15.305-.637a.638.638 0 110 1.277.638.638 0 010-1.277zm2.101 14.864l2.184-1.948.603 2.84-2.787-.892z"/></symbol><symbol id="vector-3" viewBox="0 0 32 32"><path d="M1.599 28.291h25.587a1.6 1.6 0 001.599-1.599V24.56a1.6 1.6 0 00-1.599-1.599h-.533V9.668L29.681 6.8a1.608 1.608 0 10-.746-.763L26.654 8.2V6.97a1.6 1.6 0 00-1.599-1.599H3.733A1.6 1.6 0 002.134 6.97v15.992h-.533a1.6 1.6 0 00-1.599 1.599v2.132a1.6 1.6 0 001.599 1.599zM30.384 4.837a.533.533 0 110 1.067.533.533 0 010-1.067zM3.198 6.969c0-.294.239-.533.533-.533h21.322c.294 0 .533.239.533.533v2.239l-1.066 1.013V8.035a.533.533 0 00-.533-.533H4.797a.533.533 0 00-.533.533v13.326c0 .294.239.533.533.533h19.19a.533.533 0 00.533-.533v-9.674l1.066-1.01v12.284H3.198V6.969zm4.798 6.93a1.598 1.598 0 101.107 2.749l1.853.93a.532.532 0 00.636-.123l3.939-4.431 3.872 2.901a.533.533 0 00.686-.039l3.365-3.188v8.131H5.33V8.569h18.124v2.66l-3.771 3.572-3.904-2.927a.533.533 0 00-.718.072l-3.993 4.493-1.493-.746c.011-.064.018-.129.02-.193a1.6 1.6 0 00-1.599-1.599zm.533 1.599a.533.533 0 11-1.067 0 .533.533 0 011.067 0zm3.198 8.528h5.331v.533a.533.533 0 01-.533.533h-4.264a.533.533 0 01-.533-.533v-.533zm-10.661.534c0-.294.239-.533.533-.533h9.062v.533a1.6 1.6 0 001.599 1.599h4.264a1.6 1.6 0 001.599-1.599v-.533h9.062c.294 0 .533.239.533.533v2.132a.533.533 0 01-.533.533H1.598a.533.533 0 01-.533-.533V24.56z"/></symbol><symbol id="vector-4" viewBox="0 0 32 32"><path d="M29.935 13.626a2.04 2.04 0 00-1.364-.809 2.04 2.04 0 00-1.537.404l-1.437 1.102-2.178 1.626-1.558-.621c2.779-1.247 4.721-4.026 4.721-7.253 0-4.387-3.583-7.956-7.988-7.956s-7.988 3.569-7.988 7.956c0 1.59.476 3.069 1.285 4.313l-3.172-.028h-.005c-.01 0-.018.005-.027.005a.576.576 0 00-.178.036c-.015.005-.03.009-.044.015l-.022.007-3.71 1.832-.001.001-2.173 1.045a.432.432 0 00-.072.04 2.043 2.043 0 00.525 3.654 2.038 2.038 0 001.582-.147l1.593-.847 2.598-1.342 1.557-.009-6.245 6.215-.002.001-1.536 1.53c-.363.361-.562.84-.562 1.351s.2.991.562 1.353c.373.371.863.557 1.353.557s.98-.186 1.354-.557l1.508-1.502 1.998-1.491 1.034 1.029-2.022 2.013-.002.001-1.536 1.53c-.363.361-.562.84-.562 1.351s.2.991.562 1.353c.373.371.864.557 1.354.557s.981-.186 1.354-.557l3.995-3.978.001-.002 1.159-1.148-.004-.004c.007-.007.018-.01.025-.018l5.928-6.493 3.983.567a.611.611 0 00.301-.038c.02-.007.038-.017.057-.027.022-.011.045-.017.066-.031l3.688-2.448c.013-.009.021-.024.034-.034.015-.012.033-.017.046-.029l1.459-1.367a2.041 2.041 0 00.243-2.71zM4.019 17.769a.814.814 0 01-.641.059.819.819 0 01-.244-1.446l1.507-.725.515 1.506-1.138.605zm4.013-2.097l-1.777.918-.504-1.473 2.326-1.148-.045 1.703zm17.327-7.598a6.661 6.661 0 01-.687 2.937l-4.798-2.179a2.136 2.136 0 00-.905-1.593l1.68-5.577c2.729.868 4.71 3.413 4.71 6.412zm-13.528 0c0-3.712 3.034-6.732 6.764-6.732.29 0 .574.024.855.06l-1.643 5.455c-.022-.001-.043-.007-.065-.007-1.185 0-2.149.961-2.149 2.142s.964 2.142 2.149 2.142c.797 0 1.485-.44 1.857-1.084l4.432 2.014a6.76 6.76 0 01-5.436 2.742c-3.73 0-6.764-3.02-6.764-6.732zm6.835.918c0 .506-.415.918-.925.918s-.925-.412-.925-.918.415-.918.925-.918.925.412.925.918zM4.402 26.233a.698.698 0 01-.98.001.682.682 0 010-.968l1.104-1.1.977.973-1.1 1.096zm3.688 4.285a.698.698 0 01-.981.001.682.682 0 010-.968l1.105-1.1.977.973L8.09 30.52zm3.996-3.981l-.002.001-2.025 2.02-.977-.973 2.023-2.014v-.001l.002-.001a.598.598 0 00.103-.155c.008-.016.023-.029.03-.046.019-.047.022-.098.029-.148.004-.028.016-.054.016-.083 0-.041-.015-.081-.023-.121-.007-.037-.007-.074-.021-.11a.596.596 0 00-.105-.158c-.012-.013-.016-.031-.029-.044h-.001l-.001-.002-1.844-1.836c-.02-.02-.045-.028-.067-.044a.596.596 0 00-.1-.066.522.522 0 00-.107-.037.587.587 0 00-.118-.023.585.585 0 00-.11.006.596.596 0 00-.119.023.533.533 0 00-.108.051c-.023.013-.048.017-.07.033l-2.035 1.519-1.034-1.029 2.753-2.738 5.004 4.921-1.064 1.055zm7.824-8.052c-.018-.002-.034.004-.052.003a.65.65 0 00-.233.032.646.646 0 00-.206.124c-.015.013-.032.019-.046.034l-5.391 5.905-4.967-4.885 3.251-3.234a.613.613 0 00-.436-1.045v-.001l-2.546.015.032-1.845 3.562.031a7.973 7.973 0 005.716 2.411c.502 0 .992-.052 1.468-.141.046.037.091.074.149.097l2.765 1.102.175.87.204 1.016-3.446-.49zm4.638.205l-.359-1.788 1.66-1.239 1.086 1.442-2.387 1.585zm4.307-3.249l-.962.901-1.069-1.419.954-.731a.84.84 0 01.623-.164.82.82 0 01.453 1.413z"/></symbol><symbol id="vector" viewBox="0 0 32 32"><path d="M30.773 22.098l-8.443-8.505.937-4.615c.242.094.499.144.758.146h.006a2.159 2.159 0 10-2.008-1.435l-4.96.605L8.972.161a.534.534 0 00-.377-.16.532.532 0 00-.373.155L6.709 1.66a.534.534 0 000 .754l.814.826a14.943 14.943 0 002.519 17.663.513.513 0 00.146.098c-.034.18-.051.364-.052.547v6.187h-6.4a2.67 2.67 0 00-2.667 2.667v1.067c0 .295.239.533.533.533h24.533a.533.533 0 00.533-.533v-1.067a2.67 2.67 0 00-2.667-2.667h-6.4v-2.742a15.09 15.09 0 003.049.32 14.854 14.854 0 007.04-1.783l.818.823a.534.534 0 00.377.16.532.532 0 00.373-.155l1.513-1.504a.534.534 0 000-.754zM23.28 6.233a1.066 1.066 0 11.752 1.822h-.003a1.067 1.067 0 01-.747-1.823h-.002zm-1.256 3.505l-.598 2.946-1.175-1.182 1.774-1.763zm-.605-.902l-1.92 1.909-1.485-1.493 3.405-.415zM24.004 28.8a1.6 1.6 0 011.6 1.6v.533H2.137V30.4a1.6 1.6 0 011.6-1.6h20.267zm-7.467-2.133v1.067h-5.333v-1.067h5.333zM11.204 25.6v-4.053c0-1.294 1.196-2.347 2.667-2.347s2.667 1.053 2.667 2.347V25.6h-5.333zm6.4-1.696v-2.357c0-1.882-1.675-3.413-3.733-3.413a3.8 3.8 0 00-3.281 1.786A13.87 13.87 0 018.311 4.033l18.602 18.708a13.818 13.818 0 01-9.309 1.163zm11.289-.684L7.836 2.039l.755-.752 7.935 7.98c.004 0 .006.007.01.01l13.115 13.191-.757.752z"/></symbol></defs></svg>